HIERARCHY
ROOT Hips
{
  OFFSET 13.6774 106.653 -34.4427
  CHANNELS 6 Xposition Yposition Zposition Zrotation Xrotation Yrotation
  JOINT ToSpine
  {
    OFFSET -2.69724 7.43032 -0.144315
    CHANNELS 3 Zrotation Xrotation Yrotation
    JOINT Spine
    {
      OFFSET -0.0310711 10.7595 1.96963
      CHANNELS 3 Zrotation Xrotation Yrotation
      JOINT Spine1
      {
        OFFSET 19.9056 3.91189 0.764692
        CHANNELS 3 Zrotation Xrotation Yrotation
        JOINT Neck
        {
          OFFSET 25.9749 7.03908 -0.130764
          CHANNELS 3 Zrotation Xrotation Yrotation
          JOINT Head
          {
            OFFSET 9.52751 0.295786 -0.907742
            CHANNELS 3 Zrotation Xrotation Yrotation
            End Site
            {
              OFFSET 16.4037 0.713936 2.7358
            }
          }
        }
        JOINT LeftShoulder
        {
          OFFSET 17.7449 4.33886 11.7777
          CHANNELS 3 Zrotation Xrotation Yrotation
          JOINT LeftArm
          {
            OFFSET 0.911315 1.27913 9.80584
            CHANNELS 3 Zrotation Xrotation Yrotation
            JOINT LeftForeArm
            {
              OFFSET 28.6126 1.18197 -3.53199
              CHANNELS 3 Zrotation Xrotation Yrotation
              JOINT LeftHand
              {
                OFFSET 27.5088 0.0218783 0.327423
                CHANNELS 3 Zrotation Xrotation Yrotation
                End Site
                {
                  OFFSET 18.6038 -0.000155887 0.382096
                }
              }
            }
          }
        }
        JOINT RightShoulder
        {
          OFFSET 17.1009 2.89543 -12.2328
          CHANNELS 3 Zrotation Xrotation Yrotation
          JOINT RightArm
          {
            OFFSET 1.4228 0.178766 -10.211
            CHANNELS 3 Zrotation Xrotation Yrotation
            JOINT RightForeArm
            {
              OFFSET 28.733 1.87905 2.64907
              CHANNELS 3 Zrotation Xrotation Yrotation
              JOINT RightHand
              {
                OFFSET 27.4588 0.290562 -0.101845
                CHANNELS 3 Zrotation Xrotation Yrotation
                End Site
                {
                  OFFSET 17.8396 -0.255518 -0.000602873
                }
              }
            }
          }
        }
      }
    }
  }
  JOINT LeftUpLeg
  {
    OFFSET -5.61296 -2.22332 -10.2353
    CHANNELS 3 Zrotation Xrotation Yrotation
    JOINT LeftLeg
    {
      OFFSET 2.56703 -44.7417 -7.93097
      CHANNELS 3 Zrotation Xrotation Yrotation
      JOINT LeftFoot
      {
        OFFSET 3.16933 -46.5642 -3.96578
        CHANNELS 3 Zrotation Xrotation Yrotation
        JOINT LeftToeBase
        {
          OFFSET 0.346054 -6.02161 12.8035
          CHANNELS 3 Zrotation Xrotation Yrotation
          End Site
          {
            OFFSET 0.134235 -1.35082 5.13018
          }
        }
      }
    }
  }
  JOINT RightUpLeg
  {
    OFFSET -5.7928 -1.72406 10.6446
    CHANNELS 3 Zrotation Xrotation Yrotation
    JOINT RightLeg
    {
      OFFSET -2.57161 -44.7178 -7.85259
      CHANNELS 3 Zrotation Xrotation Yrotation
      JOINT RightFoot
      {
        OFFSET -3.10148 -46.5936 -4.03391
        CHANNELS 3 Zrotation Xrotation Yrotation
        JOINT RightToeBase
        {
          OFFSET -0.0828122 -6.13587 12.8035
          CHANNELS 3 Zrotation Xrotation Yrotation
          End Site
          {
            OFFSET -0.131328 -1.35082 5.13018
          }
        }
      }
    }
  }
}
MOTION
Frames: 8
Frame Time: 0.03333333333333333
0.0000 93.1000 0.0000 -66.5655 -18.1689 -170.1977 -71.8604 0.2478 87.8528 119.9349 75.0775 -29.4225 -7.0132 29.4839 1.0496 -148.5547 8.9350 -166.5944 -155.9891 46.6676 -173.4388 0.9440 -10.1867 -24.0366 -141.4455 27.4372 -69.0249 5.0631 -4.8660 -118.6615 -1.5595 0.1139 0.4207 -0.8476 7.7678 24.0501 -43.2490 -25.9763 156.4748 -6.6504 -2.3112 107.3530 -0.0636 -0.1132 -0.0529 -35.1954 16.8685 98.8029 -4.2213 46.1265 -10.7025 -3.5720 -14.2141 -2.0327 1.1318 -5.3113 9.3826 -51.6525 -20.1285 76.0808 1.1376 22.6531 8.4040 1.1092 3.1734 -0.5721 2.1788 -17.8899 -10.9918 
0.0000 93.1000 0.0000 -66.6957 -21.0086 -169.0348 -71.8276 0.1317 88.0723 117.5233 75.3481 -26.9717 -6.4348 29.1016 1.1862 -147.6529 10.3384 -167.2211 -156.0384 48.1026 -174.5018 0.7935 -11.0156 -25.4055 -138.4581 32.0380 -70.0641 7.8477 -5.5439 -119.1602 -0.6509 -0.1294 0.0080 -1.0808 7.8987 24.0961 -44.8219 -26.4723 156.5333 -4.3224 -1.8288 106.9015 0.0467 -0.1237 -0.0321 -34.5574 15.2008 98.2050 -4.3480 46.6520 -11.7752 -3.1455 -14.9230 -1.9920 -0.3066 -4.5084 10.0304 -52.3322 -21.0035 75.4250 0.9083 24.9484 10.6705 0.8118 1.4534 -0.5306 2.4120 -19.8888 -13.6768 
0.0000 93.1000 0.0000 -66.4682 -22.4205 -169.3919 -71.8505 -0.0016 88.1036 114.9604 75.4876 -25.3099 -5.6241 29.0853 1.3682 -147.0011 11.2192 -165.5967 -156.6753 48.9963 -173.7702 0.7838 -11.4988 -25.4157 -138.7708 33.9314 -70.0017 8.4624 -5.4007 -117.6359 -0.5249 -0.2111 -0.5358 -1.5038 7.9653 25.1356 -46.4190 -27.1223 156.6176 -2.3234 -1.0107 107.5132 0.2976 -0.6330 -0.4852 -33.9045 14.6020 98.0737 -4.8075 48.0458 -13.3342 -2.8338 -15.7568 -2.0317 -1.1135 -3.1168 10.8795 -53.1330 -21.1694 75.3648 0.1831 26.2671 11.8250 -0.4688 0.3530 0.0732 2.1498 -20.7185 -16.2567 
0.0000 93.1000 0.0000 -66.4673 -23.6245 -169.1414 -71.7642 0.0771 88.1561 113.3832 75.8870 -23.0401 -5.6671 29.1695 1.1434 -146.4551 12.0270 -165.4060 -154.8101 49.1986 -175.6198 0.1565 -11.9002 -25.3318 -138.8350 34.7525 -70.1519 8.7263 -5.9486 -116.9002 -0.0404 -0.6545 -0.8099 -1.8070 7.7623 25.7229 -47.6867 -27.6851 155.7649 -1.3611 -1.1545 107.8120 0.1605 -0.1018 -0.0843 -34.0898 13.5267 97.3601 -4.7862 48.9829 -13.9581 -3.1383 -16.7736 -2.0197 -2.0535 -2.4708 12.0686 -54.0246 -20.6799 75.7289 -0.1051 26.4812 11.2220 -0.8892 -2.0572 -0.1950 1.6465 -19.0401 -15.9269 
0.0000 93.1000 0.0000 -66.5337 -24.8467 -169.3047 -71.7843 -0.1173 88.1278 111.4738 75.6793 -20.5216 -4.6474 28.9011 1.7247 -146.6452 12.8297 -165.7680 -155.3739 49.4596 -175.4472 0.3411 -11.6703 -25.2121 -138.7629 34.6309 -70.9178 8.5613 -6.3450 -117.5533 0.1069 -0.8187 -0.9727 -2.0101 8.1029 25.8666 -48.1054 -29.0989 155.5389 -0.9033 -1.0356 107.0131 0.2268 -0.1929 -0.2049 -34.7449 13.4247 97.3349 -5.1945 49.2989 -14.7981 -3.7995 -17.3011 -1.7741 -2.0148 -1.7462 12.7074 -54.0384 -20.8381 75.9122 -1.5652 27.3338 9.9248 -2.1817 -3.0928 0.0792 1.5463 -18.7500 -14.7240 
0.0000 93.1000 0.0000 -67.6545 -25.9758 -169.4895 -71.7888 0.3212 88.1517 108.1694 76.0420 -17.8574 -4.1172 28.9310 1.9261 -145.4911 13.0518 -164.4602 -155.5549 49.5200 -174.7849 0.6756 -11.5373 -24.7192 -138.8238 33.9724 -71.1910 8.6037 -5.7781 -118.0816 0.1998 -0.8381 -0.7140 -1.5171 7.9298 25.8742 -48.2479 -29.3967 155.7050 -0.7481 -0.6296 107.4024 0.0163 0.4792 0.5006 -34.5959 12.9150 96.5191 -5.4235 50.4179 -14.2860 -3.4767 -17.8675 -1.9753 -2.0922 -1.7266 10.9300 -54.3416 -20.5830 75.7293 -1.5316 28.6014 9.4634 -2.3548 -3.7754 0.1076 2.2605 -18.5514 -11.5202 
0.0000 93.1000 0.0000 -68.1561 -26.1834 -169.1333 -71.7453 0.0141 88.0682 108.2592 76.1848 -16.6283 -3.9386 29.0119 1.7871 -144.4393 12.9750 -163.9869 -155.1657 49.6248 -174.4852 0.4066 -11.6179 -24.8948 -138.7528 32.8471 -71.2675 8.8226 -5.8607 -117.7785 -0.1049 -1.0697 -0.5800 -1.6350 7.9033 25.3046 -48.6332 -30.1177 155.5395 -0.0321 -0.1000 107.7636 -0.1005 0.7115 0.5462 -35.1703 13.0430 95.9780 -5.1379 50.3662 -14.0702 -3.2317 -16.4328 -1.7519 -1.0091 -3.8164 10.9188 -54.9733 -20.6402 76.2087 -1.0239 30.1276 10.2936 -3.5843 -4.1623 -0.0246 2.1958 -17.8343 -10.4754 
0.0000 93.1000 0.0000 -68.6617 -26.2458 -171.7867 -71.6480 -0.1638 88.1201 105.4053 76.1541 -13.0115 -3.0858 29.0294 1.1784 -143.3147 12.7163 -164.3588 -155.3469 49.8142 -176.8718 0.3546 -11.2429 -24.2841 -138.9915 32.0279 -71.2178 9.7056 -6.2957 -117.9553 -0.0972 -1.0917 -1.1039 -1.5960 7.9270 25.0479 -48.7377 -30.0621 155.8575 0.3648 0.1406 107.8540 -0.2460 0.5447 0.4707 -35.8343 13.4305 95.6355 -4.8191 49.2172 -13.0043 -2.6484 -14.8942 -1.6129 -0.5019 -4.2278 8.7087 -54.2548 -20.2500 77.3642 -1.7226 31.3161 8.8529 -3.3112 -6.1644 -0.1782 1.7334 -15.9596 -9.0304 
